<?xml version="1.0" encoding="utf-8"?>
<svg width="2132px" height="1201px" viewBox="0 0 2132 1201" version="1.1" xmlns:xlink="http://www.w3.org/1999/xlink" xmlns="http://www.w3.org/2000/svg">
  <defs>
    <linearGradient x1="0" y1="0" x2="1" y2="1" id="gradient_1">
      <stop offset="0" stop-color="#59ADFF" />
      <stop offset="1" stop-color="#258BF0" />
    </linearGradient>
  </defs>
  <path d="M0 179.5C0 80.3649 56.8598 0 127 0C197.14 0 254 80.3649 254 179.5C254 278.635 197.14 359 127 359C56.8598 359 0 278.635 0 179.5Z" transform="matrix(0.8386708 0.54463863 -0.54463863 0.8386708 1222.9766 403.33423)" id="Ellipse-3" fill="url(#gradient_1)" fill-opacity="0.4" fill-rule="evenodd" stroke="none" />
  <path d="M0 121.551C0 54.4203 38.5035 0 86 0C133.496 0 172 54.4203 172 121.551C172 188.682 133.496 243.102 86 243.102C38.5035 243.102 0 188.682 0 121.551Z" transform="matrix(0.8386708 0.54463863 -0.54463863 0.8386708 1987.5015 232.98389)" id="Ellipse-3-Copy" fill="url(#gradient_1)" fill-opacity="0.4" fill-rule="evenodd" stroke="none" />
  <path d="M0 117.5C0 52.6065 52.6065 0 117.5 0C182.393 0 235 52.6065 235 117.5C235 182.393 182.393 235 117.5 235C52.6065 235 0 182.393 0 117.5Z" transform="translate(1.0993652 0.6298828)" id="Ellipse" fill="url(#gradient_1)" fill-opacity="0.4" fill-rule="evenodd" stroke="none" />
  <path d="M0 160C0 71.6344 71.6344 0 160 0C248.366 0 320 71.6344 320 160C320 248.366 248.366 320 160 320C71.6344 320 0 248.366 0 160Z" transform="translate(576.0991 317.54468)" id="Ellipse-Copy" fill="url(#gradient_1)" fill-opacity="0.4" fill-rule="evenodd" stroke="none" />
  <path d="M0 210C0 94.0202 94.0202 0 210 0C325.98 0 420 94.0202 420 210C420 325.98 325.98 420 210 420C94.0202 420 0 325.98 0 210Z" transform="translate(526.0991 267.54468)" id="Ellipse-Copy-2" fill="none" fill-rule="evenodd" stroke="#258BF0" stroke-width="2" />
  <path d="M0 235C0 105.213 105.213 0 235 0C364.787 0 470 105.213 470 235C470 364.787 364.787 470 235 470C105.213 470 0 364.787 0 235Z" transform="translate(501.09912 239.64502)" id="Ellipse-Copy-3" fill="none" fill-rule="evenodd" stroke="#258BF0" stroke-width="2" />
  <path d="M0 126.74C0 56.7436 56.7436 0 126.74 0C196.737 0 253.481 56.7436 253.481 126.74C253.481 196.737 196.737 253.481 126.74 253.481C56.7436 253.481 0 196.737 0 126.74Z" transform="translate(1542.2085 684.25146)" id="Ellipse-Copy-6" fill="url(#gradient_1)" fill-opacity="0.4" fill-rule="evenodd" stroke="none" />
  <path d="M0 166.347C0 74.476 74.476 0 166.347 0C258.217 0 332.693 74.476 332.693 166.347C332.693 258.217 258.217 332.693 166.347 332.693C74.476 332.693 0 258.217 0 166.347Z" transform="translate(1502.6025 644.645)" id="Ellipse-Copy-7" fill="none" fill-rule="evenodd" stroke="#258BF0" stroke-width="2" />
  <path d="M0 186.15C0 83.3422 83.3421 0 186.15 0C288.958 0 372.3 83.3422 372.3 186.15C372.3 288.958 288.958 372.3 186.15 372.3C83.3421 372.3 0 288.958 0 186.15Z" transform="translate(1482.7993 622.5449)" id="Ellipse-Copy-8" fill="none" fill-rule="evenodd" stroke="#258BF0" stroke-width="2" />
  <path d="M0 232.5C0 104.094 72.5299 0 162 0C251.47 0 324 104.094 324 232.5C324 360.906 251.47 465 162 465C72.5299 465 0 360.906 0 232.5Z" transform="matrix(0.99452186 0.1045284 -0.1045284 0.99452186 126.782715 633.70776)" id="Ellipse-3-Copy-2" fill="url(#gradient_1)" fill-opacity="0.4" fill-rule="evenodd" stroke="none" />
  <path d="M0 58.5C0 26.1913 26.1913 0 58.5 0C90.8087 0 117 26.1913 117 58.5C117 90.8087 90.8087 117 58.5 117C26.1913 117 0 90.8087 0 58.5Z" transform="translate(1365.7993 89.815186)" id="Ellipse-Copy-4" fill="url(#gradient_1)" fill-opacity="0.4" fill-rule="evenodd" stroke="none" />
  <path d="M0 58.5C0 26.1913 26.1913 0 58.5 0C90.8087 0 117 26.1913 117 58.5C117 90.8087 90.8087 117 58.5 117C26.1913 117 0 90.8087 0 58.5Z" transform="translate(946.0991 117.54443)" id="Ellipse-Copy-9" fill="url(#gradient_1)" fill-opacity="0.4" fill-rule="evenodd" stroke="none" />
  <path d="M0 58.5C0 26.1913 26.1913 0 58.5 0C90.8086 0 117 26.1913 117 58.5C117 90.8087 90.8086 117 58.5 117C26.1913 117 0 90.8087 0 58.5Z" transform="translate(430.09863 174.67358)" id="Ellipse-Copy-10" fill="url(#gradient_1)" fill-opacity="0.4" fill-rule="evenodd" stroke="none" />
  <path d="M0 101C0 45.2192 26.1913 0 58.5 0C90.8087 0 117 45.2192 117 101C117 156.781 90.8087 202 58.5 202C26.1913 202 0 156.781 0 101Z" transform="translate(1629.9988 317.54468)" id="Ellipse-Copy-11" fill="url(#gradient_1)" fill-opacity="0.4" fill-rule="evenodd" stroke="none" />
  <path d="M0 147C0 65.8141 65.8141 0 147 0C228.186 0 294 65.8141 294 147C294 228.186 228.186 294 147 294C65.8141 294 0 228.186 0 147Z" transform="translate(1277.3989 1)" id="Ellipse-Copy-5" fill="none" fill-rule="evenodd" stroke="#258BF0" stroke-width="2" />
  <path d="M0 333.681C0 149.394 104.094 0 232.5 0C360.906 0 465 149.394 465 333.681C465 517.967 360.906 667.361 232.5 667.361C104.094 667.361 0 517.967 0 333.681Z" transform="matrix(0.99452186 0.1045284 -0.1045284 0.99452186 70.85742 487.36255)" id="Ellipse-3-Copy-3" fill="none" fill-rule="evenodd" stroke="#258BF0" stroke-width="2" />
  <path d="M0 119.5C0 53.502 37.8538 0 84.5487 0C131.244 0 169.097 53.502 169.097 119.5C169.097 185.498 131.244 239 84.5487 239C37.8538 239 0 185.498 0 119.5Z" transform="matrix(0.788011 -0.6156611 0.6156611 0.788011 803.1001 941.66113)" id="Ellipse-3-Copy-4" fill="url(#gradient_1)" fill-opacity="0.4" fill-rule="evenodd" stroke="none" />
</svg>