<?xml version="1.0" encoding="utf-8"?>
<svg width="1916px" height="998px" viewBox="0 0 1916 998" version="1.1" xmlns:xlink="http://www.w3.org/1999/xlink" xmlns="http://www.w3.org/2000/svg">
  <defs>
    <linearGradient x1="0" y1="0" x2="1" y2="1" id="gradient_1">
      <stop offset="0%" stop-color="#F3EEFF" stop-opacity="0.2509804" />
      <stop offset="100%" stop-color="#E4D7FF" stop-opacity="0.49803922" />
    </linearGradient>
  </defs>
  <g id="Group">
    <path d="M1725.06 501.415L1759.96 501.415C1765.48 501.415 1771.38 505.665 1772.72 511.023C1775.92 523.871 1779.64 546.11 1770.15 555.448C1760.62 564.825 1737.79 561.193 1724.7 558.092C1719.33 556.818 1715.06 550.983 1715.06 545.461L1715.06 511.414Q1715.06 511.168 1715.07 510.923Q1715.08 510.678 1715.11 510.433Q1715.13 510.189 1715.17 509.946Q1715.2 509.704 1715.25 509.463Q1715.3 509.222 1715.36 508.984Q1715.42 508.746 1715.49 508.511Q1715.56 508.276 1715.64 508.045Q1715.72 507.814 1715.82 507.587Q1715.91 507.36 1716.02 507.138Q1716.12 506.917 1716.24 506.7Q1716.35 506.483 1716.48 506.273Q1716.61 506.062 1716.74 505.858Q1716.88 505.654 1717.02 505.457Q1717.17 505.26 1717.33 505.07Q1717.48 504.88 1717.65 504.699Q1717.81 504.517 1717.99 504.343Q1718.16 504.17 1718.34 504.005Q1718.52 503.84 1718.71 503.684Q1718.9 503.528 1719.1 503.382Q1719.3 503.236 1719.5 503.1Q1719.7 502.963 1719.92 502.837Q1720.13 502.711 1720.34 502.595Q1720.56 502.479 1720.78 502.375Q1721 502.27 1721.23 502.176Q1721.46 502.082 1721.69 501.999Q1721.92 501.916 1722.15 501.845Q1722.39 501.774 1722.63 501.714Q1722.86 501.655 1723.1 501.607Q1723.35 501.559 1723.59 501.523Q1723.83 501.487 1724.08 501.463Q1724.32 501.439 1724.57 501.427Q1724.81 501.415 1725.06 501.415Z" id="Rectangle-Copy-11" fill="url(#gradient_1)" fill-rule="evenodd" stroke="none" />
    <path d="M1754.92 777.619L1854.23 777.619C1859.75 777.619 1865.65 781.865 1867.18 787.171C1873.98 810.77 1888.45 871.603 1864.64 895.039C1840.78 918.526 1778.49 904.453 1754.51 897.882C1749.19 896.422 1744.92 890.587 1744.92 885.065L1744.92 787.618Q1744.92 787.373 1744.93 787.128Q1744.94 786.882 1744.97 786.638Q1744.99 786.394 1745.03 786.151Q1745.06 785.908 1745.11 785.667Q1745.16 785.427 1745.22 785.189Q1745.28 784.95 1745.35 784.716Q1745.42 784.481 1745.5 784.25Q1745.59 784.018 1745.68 783.792Q1745.78 783.565 1745.88 783.343Q1745.99 783.121 1746.1 782.905Q1746.22 782.688 1746.34 782.478Q1746.47 782.267 1746.61 782.063Q1746.74 781.859 1746.89 781.662Q1747.03 781.465 1747.19 781.275Q1747.35 781.085 1747.51 780.903Q1747.68 780.721 1747.85 780.548Q1748.02 780.374 1748.2 780.209Q1748.39 780.044 1748.58 779.889Q1748.77 779.733 1748.96 779.587Q1749.16 779.441 1749.36 779.304Q1749.57 779.168 1749.78 779.042Q1749.99 778.915 1750.21 778.8Q1750.42 778.684 1750.64 778.579Q1750.87 778.474 1751.09 778.38Q1751.32 778.286 1751.55 778.204Q1751.78 778.121 1752.02 778.05Q1752.25 777.978 1752.49 777.919Q1752.73 777.859 1752.97 777.811Q1753.21 777.763 1753.45 777.727Q1753.7 777.691 1753.94 777.667Q1754.18 777.643 1754.43 777.631Q1754.67 777.619 1754.92 777.619Z" id="Rectangle-Copy-17" fill="url(#gradient_1)" fill-rule="evenodd" stroke="none" />
    <path d="M171.905 907.173L234.957 907.173C240.479 907.173 246.376 911.421 247.833 916.748C252.774 934.812 260.911 973.491 245.247 988.911C229.537 1004.38 189.887 996.449 171.519 991.674C166.175 990.285 161.906 984.452 161.906 978.93L161.906 917.172Q161.906 916.927 161.918 916.681Q161.93 916.436 161.954 916.192Q161.978 915.948 162.014 915.705Q162.05 915.462 162.098 915.221Q162.146 914.981 162.205 914.742Q162.265 914.504 162.336 914.27Q162.408 914.035 162.49 913.804Q162.573 913.572 162.667 913.346Q162.761 913.119 162.866 912.897Q162.971 912.675 163.086 912.459Q163.202 912.242 163.328 912.031Q163.454 911.821 163.591 911.617Q163.727 911.413 163.873 911.216Q164.02 911.019 164.175 910.829Q164.331 910.639 164.496 910.457Q164.661 910.275 164.834 910.102Q165.008 909.928 165.19 909.763Q165.372 909.598 165.561 909.443Q165.751 909.287 165.948 909.141Q166.145 908.995 166.35 908.858Q166.554 908.722 166.764 908.596Q166.975 908.469 167.191 908.354Q167.408 908.238 167.63 908.133Q167.851 908.028 168.078 907.934Q168.305 907.84 168.536 907.758Q168.767 907.675 169.002 907.604Q169.237 907.532 169.475 907.473Q169.713 907.413 169.954 907.365Q170.195 907.317 170.438 907.281Q170.68 907.245 170.925 907.221Q171.169 907.197 171.414 907.185Q171.659 907.173 171.905 907.173Z" id="Rectangle-Copy-14" fill="url(#gradient_1)" fill-rule="evenodd" stroke="none" />
    <path d="M9.999 0L99.7648 0C105.287 0 111.185 4.24676 112.701 9.55699C119.047 31.7922 131.797 86.7178 110.148 108.03C88.4482 129.391 32.1887 116.983 9.5974 110.856C4.26766 109.41 0 103.576 0 98.0542L0 9.999Q0 9.75354 0.0120442 9.50837Q0.0240885 9.26321 0.0481479 9.01893Q0.0722074 8.77465 0.108224 8.53184Q0.144241 8.28904 0.192128 8.04829Q0.240015 7.80755 0.299657 7.56944Q0.3593 7.33134 0.430553 7.09644Q0.501807 6.86155 0.584501 6.63044Q0.667194 6.39932 0.761128 6.17255Q0.855062 5.94577 0.960011 5.72388Q1.06496 5.50198 1.18067 5.2855Q1.29638 5.06903 1.42257 4.85849Q1.54876 4.64795 1.68514 4.44385Q1.82151 4.23976 1.96773 4.0426Q2.11395 3.84545 2.26967 3.6557Q2.42539 3.46596 2.59023 3.28408Q2.75507 3.10221 2.92864 2.92864Q3.10221 2.75507 3.28408 2.59023Q3.46596 2.42539 3.6557 2.26967Q3.84545 2.11395 4.0426 1.96773Q4.23976 1.82151 4.44385 1.68514Q4.64795 1.54876 4.85849 1.42257Q5.06903 1.29638 5.2855 1.18067Q5.50198 1.06496 5.72388 0.960011Q5.94577 0.855062 6.17255 0.761128Q6.39932 0.667194 6.63044 0.584501Q6.86155 0.501807 7.09644 0.430553Q7.33134 0.3593 7.56944 0.299657Q7.80755 0.240015 8.04829 0.192128Q8.28904 0.144241 8.53184 0.108224Q8.77465 0.0722074 9.01893 0.0481479Q9.26321 0.0240885 9.50837 0.0120442Q9.75354 0 9.999 0L9.999 0Z" id="Rectangle-Copy-15" fill="url(#gradient_1)" fill-rule="evenodd" stroke="none" />
    <path d="M1838.98 120L1907.71 120C1913.23 120 1919.13 124.248 1920.6 129.57C1925.86 148.573 1934.95 190.665 1918.02 207.331C1901.04 224.043 1857.9 215.188 1838.59 210.11C1833.25 208.706 1828.98 202.874 1828.98 197.351L1828.98 129.999Q1828.98 129.754 1828.99 129.508Q1829 129.263 1829.03 129.019Q1829.05 128.775 1829.09 128.532Q1829.12 128.289 1829.17 128.048Q1829.22 127.808 1829.28 127.569Q1829.34 127.331 1829.41 127.096Q1829.48 126.862 1829.56 126.63Q1829.64 126.399 1829.74 126.173Q1829.83 125.946 1829.94 125.724Q1830.04 125.502 1830.16 125.285Q1830.27 125.069 1830.4 124.858Q1830.53 124.648 1830.66 124.444Q1830.8 124.24 1830.94 124.043Q1831.09 123.845 1831.25 123.656Q1831.4 123.466 1831.57 123.284Q1831.73 123.102 1831.91 122.929Q1832.08 122.755 1832.26 122.59Q1832.44 122.425 1832.63 122.27Q1832.82 122.114 1833.02 121.968Q1833.22 121.821 1833.42 121.685Q1833.62 121.549 1833.84 121.423Q1834.05 121.296 1834.26 121.181Q1834.48 121.065 1834.7 120.96Q1834.92 120.855 1835.15 120.761Q1835.38 120.667 1835.61 120.584Q1835.84 120.502 1836.07 120.431Q1836.31 120.359 1836.55 120.3Q1836.78 120.24 1837.03 120.192Q1837.27 120.144 1837.51 120.108Q1837.75 120.072 1838 120.048Q1838.24 120.024 1838.49 120.012Q1838.73 120 1838.98 120Z" id="Rectangle-Copy-12" fill="url(#gradient_1)" fill-rule="evenodd" stroke="none" />
    <path d="M75.8994 440.968L110.487 440.968C116.009 440.968 121.91 445.218 123.243 450.577C126.423 463.36 130.095 485.421 120.677 494.692C111.22 504.001 88.5647 500.413 75.5451 497.333C70.1712 496.061 65.9004 490.226 65.9004 484.704L65.9004 450.967Q65.9004 450.722 65.9124 450.476Q65.9245 450.231 65.9485 449.987Q65.9726 449.743 66.0086 449.5Q66.0446 449.257 66.0925 449.016Q66.1404 448.775 66.2 448.537Q66.2597 448.299 66.3309 448.064Q66.4022 447.829 66.4849 447.598Q66.5676 447.367 66.6615 447.141Q66.7554 446.914 66.8604 446.692Q66.9653 446.47 67.0811 446.253Q67.1968 446.037 67.323 445.826Q67.4491 445.616 67.5855 445.412Q67.7219 445.208 67.8681 445.011Q68.0143 444.813 68.1701 444.624Q68.3258 444.434 68.4906 444.252Q68.6555 444.07 68.829 443.897Q69.0026 443.723 69.1845 443.558Q69.3663 443.393 69.5561 443.238Q69.7458 443.082 69.943 442.936Q70.1401 442.789 70.3442 442.653Q70.5483 442.517 70.7589 442.391Q70.9694 442.264 71.1859 442.149Q71.4024 442.033 71.6243 441.928Q71.8461 441.823 72.0729 441.729Q72.2997 441.635 72.5308 441.553Q72.7619 441.47 72.9968 441.399Q73.2317 441.327 73.4698 441.268Q73.7079 441.208 73.9487 441.16Q74.1894 441.112 74.4322 441.076Q74.675 441.04 74.9193 441.016Q75.1636 440.992 75.4088 440.98Q75.6539 440.968 75.8994 440.968Z" id="Rectangle-Copy-13" fill="url(#gradient_1)" fill-rule="evenodd" stroke="none" />
  </g>
</svg>