<?xml version="1.0" encoding="utf-8"?>
<svg width="424px" height="113px" viewBox="0 0 424 113" version="1.1" xmlns:xlink="http://www.w3.org/1999/xlink" xmlns="http://www.w3.org/2000/svg">
  <defs>
    <linearGradient x1="0" y1="0" x2="1" y2="1" id="gradient_1">
      <stop offset="0" stop-color="#A2CCEC" />
      <stop offset="1" stop-color="#B2AFC3" />
    </linearGradient>
  </defs>
  <g id="Group-24">
    <path d="M9.999 0L414.001 0Q414.246 0 414.492 0.0120442Q414.737 0.0240885 414.981 0.0481479Q415.225 0.0722074 415.468 0.108224Q415.711 0.144241 415.952 0.192128Q416.192 0.240015 416.431 0.299657Q416.669 0.3593 416.904 0.430553Q417.138 0.501807 417.37 0.584501Q417.601 0.667194 417.827 0.761128Q418.054 0.855062 418.276 0.960011Q418.498 1.06496 418.715 1.18067Q418.931 1.29638 419.142 1.42257Q419.352 1.54876 419.556 1.68514Q419.76 1.82151 419.957 1.96773Q420.155 2.11395 420.344 2.26967Q420.534 2.42539 420.716 2.59023Q420.898 2.75507 421.071 2.92864Q421.245 3.10221 421.41 3.28408Q421.575 3.46596 421.73 3.6557Q421.886 3.84545 422.032 4.0426Q422.178 4.23976 422.315 4.44385Q422.451 4.64795 422.577 4.85849Q422.704 5.06903 422.819 5.2855Q422.935 5.50198 423.04 5.72388Q423.145 5.94577 423.239 6.17255Q423.333 6.39932 423.415 6.63044Q423.498 6.86155 423.569 7.09644Q423.641 7.33134 423.7 7.56944Q423.76 7.80755 423.808 8.04829Q423.856 8.28904 423.892 8.53184Q423.928 8.77465 423.952 9.01893Q423.976 9.26321 423.988 9.50837Q424 9.75354 424 9.999L424 102.566Q424 102.811 423.988 103.057Q423.976 103.302 423.952 103.546Q423.928 103.79 423.892 104.033Q423.856 104.276 423.808 104.517Q423.76 104.757 423.7 104.995Q423.641 105.234 423.569 105.468Q423.498 105.703 423.415 105.934Q423.333 106.166 423.239 106.392Q423.145 106.619 423.04 106.841Q422.935 107.063 422.819 107.279Q422.704 107.496 422.577 107.706Q422.451 107.917 422.315 108.121Q422.178 108.325 422.032 108.522Q421.886 108.719 421.73 108.909Q421.575 109.099 421.41 109.281Q421.245 109.463 421.071 109.636Q420.898 109.81 420.716 109.975Q420.534 110.14 420.344 110.295Q420.155 110.451 419.957 110.597Q419.76 110.743 419.556 110.88Q419.352 111.016 419.141 111.142Q418.931 111.269 418.715 111.384Q418.498 111.5 418.276 111.605Q418.054 111.71 417.827 111.804Q417.601 111.898 417.37 111.98Q417.138 112.063 416.904 112.134Q416.669 112.206 416.431 112.265Q416.192 112.325 415.952 112.373Q415.711 112.421 415.468 112.457Q415.225 112.493 414.981 112.517Q414.737 112.541 414.492 112.553Q414.246 112.565 414.001 112.565L9.999 112.565Q9.75354 112.565 9.50837 112.553Q9.26321 112.541 9.01893 112.517Q8.77465 112.493 8.53184 112.457Q8.28904 112.421 8.04829 112.373Q7.80755 112.325 7.56944 112.265Q7.33134 112.206 7.09644 112.134Q6.86155 112.063 6.63044 111.98Q6.39932 111.898 6.17255 111.804Q5.94577 111.71 5.72388 111.605Q5.50198 111.5 5.2855 111.384Q5.06903 111.269 4.85849 111.142Q4.64795 111.016 4.44385 110.88Q4.23976 110.743 4.0426 110.597Q3.84545 110.451 3.6557 110.295Q3.46596 110.14 3.28408 109.975Q3.10221 109.81 2.92864 109.636Q2.75507 109.463 2.59023 109.281Q2.42539 109.099 2.26967 108.909Q2.11395 108.719 1.96773 108.522Q1.82151 108.325 1.68514 108.121Q1.54876 107.917 1.42257 107.706Q1.29638 107.496 1.18067 107.279Q1.06496 107.063 0.960011 106.841Q0.855062 106.619 0.761128 106.392Q0.667194 106.166 0.584501 105.934Q0.501807 105.703 0.430553 105.468Q0.3593 105.234 0.299657 104.995Q0.240015 104.757 0.192128 104.517Q0.144241 104.276 0.108224 104.033Q0.0722074 103.79 0.0481479 103.546Q0.0240885 103.302 0.0120442 103.057Q0 102.811 0 102.566L0 9.999Q0 9.75354 0.0120442 9.50837Q0.0240885 9.26321 0.0481479 9.01893Q0.0722074 8.77465 0.108224 8.53184Q0.144241 8.28904 0.192128 8.04829Q0.240015 7.80755 0.299657 7.56944Q0.3593 7.33134 0.430553 7.09644Q0.501807 6.86155 0.584501 6.63044Q0.667194 6.39932 0.761128 6.17255Q0.855062 5.94577 0.960011 5.72388Q1.06496 5.50198 1.18067 5.2855Q1.29638 5.06903 1.42257 4.85849Q1.54876 4.64795 1.68514 4.44385Q1.82151 4.23976 1.96773 4.0426Q2.11395 3.84545 2.26967 3.6557Q2.42539 3.46596 2.59023 3.28408Q2.75507 3.10221 2.92864 2.92864Q3.10221 2.75507 3.28408 2.59023Q3.46596 2.42539 3.6557 2.26967Q3.84545 2.11395 4.0426 1.96773Q4.23976 1.82151 4.44385 1.68514Q4.64795 1.54876 4.85849 1.42257Q5.06903 1.29638 5.2855 1.18067Q5.50198 1.06496 5.72388 0.960011Q5.94577 0.855062 6.17255 0.761128Q6.39932 0.667194 6.63044 0.584501Q6.86155 0.501807 7.09644 0.430553Q7.33134 0.3593 7.56944 0.299657Q7.80755 0.240015 8.04829 0.192128Q8.28904 0.144241 8.53184 0.108224Q8.77465 0.0722074 9.01893 0.0481479Q9.26321 0.0240885 9.50837 0.0120442Q9.75354 0 9.999 0Z" id="Rectangle-11" fill="url(#gradient_1)" fill-rule="evenodd" stroke="none" />
    <g id="Group" transform="translate(27.375 13.95433)">
      <g id="michael-salam" fill="#181520">
        <path d="M59.3496 27.5801L59.3496 31.9219L63.6914 31.9219L63.6914 27.5801L59.3496 27.5801ZM96.4043 27.5801L96.4043 55.3359L99.8848 55.3359L99.8848 42.842Q101.323 40.9414 102.621 40.0176Q103.919 39.0938 105.323 39.0938Q106.077 39.0938 106.726 39.3665Q107.375 39.6392 107.778 40.2377Q108.147 40.7832 108.243 41.4518Q108.34 42.1205 108.34 43.2114L108.34 55.3359L111.803 55.3359L111.803 42.2636Q111.803 40.6626 111.566 39.5982Q111.329 38.5337 110.592 37.6364Q109.1 35.8066 106.379 35.8066Q104.466 35.8066 102.754 36.8438Q101.043 37.8809 99.8845 39.8145L99.6738 39.8145L99.8848 36.2337L99.8848 27.5801L96.4043 27.5801ZM168.686 55.3359L168.686 30.1816L161.32 30.1816L161.32 27.5801L172.166 27.5801L172.166 55.3359L168.686 55.3359ZM255.451 30.1816L255.451 55.3359L258.932 55.3359L258.932 27.5801L248.086 27.5801L248.086 30.1816L255.451 30.1816ZM29.7656 36.2461L29.7656 55.3359L32.8067 55.3359L32.8067 43.0096Q33.5274 41.2814 34.5469 40.0382Q35.5664 38.7949 36.3223 38.7949Q36.6211 38.7949 36.9199 39.0506Q37.2188 39.3063 37.3418 39.7737Q37.4649 40.241 37.4649 42.0925L37.4649 55.3359L40.5059 55.3359L40.5059 43.0005Q41.2442 41.3641 42.2549 40.0795Q43.2656 38.7949 44.0742 38.7949Q44.3555 38.7949 44.6543 39.0325Q44.9531 39.2701 45.0586 39.6924Q45.1641 40.1147 45.1641 41.4871L45.1641 55.3359L48.2051 55.3359L48.2051 41.3487Q48.2051 38.9207 47.8104 37.9179Q47.4157 36.9152 46.6003 36.3609Q45.7848 35.8066 44.8026 35.8066Q43.487 35.8066 42.3645 37.0195Q41.242 38.2324 40.5229 39.8145L40.2949 39.8145Q40.1543 37.8984 39.2315 36.8525Q38.3086 35.8066 37.0781 35.8066Q35.918 35.8066 34.9248 36.8174Q33.9317 37.8281 32.8242 39.8145L32.5957 39.8145L32.8067 36.2461L29.7656 36.2461ZM90.8848 54.7207Q87.8119 55.7754 84.7566 55.7754Q79.5414 55.7754 76.9602 53.0572Q74.3789 50.3391 74.3789 45.7822Q74.3789 41.2784 76.9688 38.5425Q79.5587 35.8066 84.4402 35.8066Q87.4603 35.8066 90.5332 36.7207L90.5332 39.6225Q87.1453 38.4082 84.7583 38.4082Q81.5986 38.4082 79.8345 40.3969Q78.0703 42.3855 78.0703 45.7822Q78.0703 49.2492 79.9837 51.2115Q81.8971 53.1738 85.2323 53.1738Q87.7427 53.1738 90.8848 51.9947L90.8848 54.7207ZM129.574 53.0332Q127.816 54.5098 126.305 55.0898Q124.793 55.6699 123.299 55.6699Q120.768 55.6699 119.027 54.2021Q117.287 52.7344 117.287 50.3965Q117.287 47.5137 119.88 45.6592Q122.473 43.8047 126.885 43.8047L129.029 43.8047L129.029 42.1647Q129.029 41.0183 128.827 40.3657Q128.625 39.7131 128.115 39.2723Q127.518 38.7609 126.771 38.5845Q126.023 38.4082 125.162 38.4082Q123.914 38.4082 122.42 38.7256Q120.926 39.0429 118.939 40.1012L118.939 37.1266Q121.207 36.317 122.71 36.0618Q124.213 35.8066 125.865 35.8066Q129.645 35.8066 131.156 37.4431Q132 38.3579 132.255 39.4754Q132.51 40.5928 132.51 42.2292L132.51 50.2353Q132.51 51.2207 132.563 51.7133Q132.615 52.2059 132.896 52.5756Q133.107 52.8747 133.459 53.0419Q133.811 53.209 134.268 53.209Q134.602 53.209 135.357 53.0332L135.674 55.1074Q133.951 55.6699 133.037 55.6699Q131.982 55.6699 131.068 55.2041Q130.154 54.7383 129.574 53.0332ZM154.518 55.0195Q154.975 54.8789 155.889 54.5801L155.889 51.8379Q152.549 53.1738 149.754 53.1738Q146.977 53.1738 144.973 51.7676Q142.969 50.3613 142.758 46.6875L155.766 46.6875L155.766 45.5782Q155.766 40.0147 153.656 37.9107Q151.547 35.8066 148.084 35.8066Q144.006 35.8066 141.536 38.7975Q139.066 41.7884 139.066 45.9934Q139.066 50.2333 141.483 53.0044Q143.9 55.7754 149.279 55.7754Q150.598 55.7754 151.89 55.5908Q153.182 55.4063 154.518 55.0195ZM204.949 51.4278L204.949 54.5609Q208.693 55.7754 211.98 55.7754Q216.041 55.7754 218.124 54.0336Q220.207 52.2919 220.207 49.8463Q220.207 48.1572 219.293 46.9256Q218.361 45.7116 215.725 44.7968L211.348 43.2655Q209.801 42.7376 209.291 42.1919Q208.764 41.664 208.764 40.9425Q208.764 39.8513 209.854 39.1297Q210.943 38.4082 212.93 38.4082Q215.76 38.4082 219.188 39.4464L219.188 36.6331Q216.568 36.0176 215.32 35.9121Q214.072 35.8066 212.947 35.8066Q209.15 35.8066 207.296 37.328Q205.441 38.8493 205.441 41.2589Q205.441 43.1057 206.619 44.3367Q207.798 45.5856 209.785 46.2187L213.497 47.4241Q215.568 48.0943 216.182 48.7117Q216.779 49.3465 216.779 50.1578Q216.779 51.2691 215.531 52.2215Q214.283 53.1738 211.91 53.1738Q208.975 53.1738 204.949 51.4278ZM238.031 53.0332Q236.273 54.5098 234.762 55.0898Q233.25 55.6699 231.756 55.6699Q229.225 55.6699 227.484 54.2021Q225.744 52.7344 225.744 50.3965Q225.744 47.5137 228.337 45.6592Q230.93 43.8047 235.342 43.8047L237.486 43.8047L237.486 42.1647Q237.486 41.0183 237.284 40.3657Q237.082 39.7131 236.572 39.2723Q235.975 38.7609 235.228 38.5845Q234.48 38.4082 233.619 38.4082Q232.371 38.4082 230.877 38.7256Q229.383 39.0429 227.396 40.1012L227.396 37.1266Q229.664 36.317 231.167 36.0618Q232.67 35.8066 234.322 35.8066Q238.102 35.8066 239.613 37.4431Q240.457 38.3579 240.712 39.4754Q240.967 40.5928 240.967 42.2292L240.967 50.2353Q240.967 51.2207 241.02 51.7133Q241.072 52.2059 241.354 52.5756Q241.564 52.8747 241.916 53.0419Q242.268 53.209 242.725 53.209Q243.059 53.209 243.814 53.0332L244.131 55.1074Q242.408 55.6699 241.494 55.6699Q240.439 55.6699 239.525 55.2041Q238.611 54.7383 238.031 53.0332ZM281.414 53.0332Q279.656 54.5098 278.145 55.0898Q276.633 55.6699 275.139 55.6699Q272.607 55.6699 270.867 54.2021Q269.127 52.7344 269.127 50.3965Q269.127 47.5137 271.72 45.6592Q274.313 43.8047 278.725 43.8047L280.869 43.8047L280.869 42.1647Q280.869 41.0183 280.667 40.3657Q280.465 39.7131 279.955 39.2723Q279.357 38.7609 278.61 38.5845Q277.863 38.4082 277.002 38.4082Q275.754 38.4082 274.26 38.7256Q272.766 39.0429 270.779 40.1012L270.779 37.1266Q273.047 36.317 274.55 36.0618Q276.053 35.8066 277.705 35.8066Q281.484 35.8066 282.996 37.4431Q283.84 38.3579 284.095 39.4754Q284.35 40.5928 284.35 42.2292L284.35 50.2353Q284.35 51.2207 284.402 51.7133Q284.455 52.2059 284.736 52.5756Q284.947 52.8747 285.299 53.0419Q285.65 53.209 286.107 53.209Q286.441 53.209 287.197 53.0332L287.514 55.1074Q285.791 55.6699 284.877 55.6699Q283.822 55.6699 282.908 55.2041Q281.994 54.7383 281.414 53.0332ZM290.063 36.2461L290.063 55.3359L293.104 55.3359L293.104 43.0096Q293.824 41.2814 294.844 40.0382Q295.863 38.7949 296.619 38.7949Q296.918 38.7949 297.217 39.0506Q297.516 39.3063 297.639 39.7737Q297.762 40.241 297.762 42.0925L297.762 55.3359L300.803 55.3359L300.803 43.0005Q301.541 41.3641 302.552 40.0795Q303.563 38.7949 304.371 38.7949Q304.652 38.7949 304.951 39.0325Q305.25 39.2701 305.355 39.6924Q305.461 40.1147 305.461 41.4871L305.461 55.3359L308.502 55.3359L308.502 41.3487Q308.502 38.9207 308.107 37.9179Q307.713 36.9152 306.897 36.3609Q306.082 35.8066 305.099 35.8066Q303.784 35.8066 302.661 37.0195Q301.539 38.2324 300.82 39.8145L300.592 39.8145Q300.451 37.8984 299.528 36.8525Q298.605 35.8066 297.375 35.8066Q296.215 35.8066 295.222 36.8174Q294.229 37.8281 293.121 39.8145L292.893 39.8145L293.104 36.2461L290.063 36.2461ZM59.7891 38.8477L59.7891 55.3359L63.2695 55.3359L63.2695 36.2461L52.8633 36.2461L52.8633 38.8477L59.7891 38.8477ZM152.074 44.0859L142.863 44.0859Q143.109 41.3528 144.445 39.8805Q145.781 38.4082 147.768 38.4082Q149.631 38.4082 150.853 39.6072Q152.074 40.8062 152.074 43.5921L152.074 44.0859ZM129.029 50.7832L129.029 45.9668L127.992 45.9668Q124.301 45.9668 122.587 47.0127Q120.873 48.0586 120.873 49.834Q120.873 51.0645 121.708 51.9785Q122.543 52.8926 124.213 52.8926Q125.355 52.8926 126.56 52.3652Q127.764 51.8379 129.029 50.7832ZM237.486 50.7832L237.486 45.9668L236.449 45.9668Q232.758 45.9668 231.044 47.0127Q229.33 48.0586 229.33 49.834Q229.33 51.0645 230.165 51.9785Q231 52.8926 232.67 52.8926Q233.813 52.8926 235.017 52.3652Q236.221 51.8379 237.486 50.7832ZM280.869 50.7832L280.869 45.9668L279.832 45.9668Q276.141 45.9668 274.427 47.0127Q272.713 48.0586 272.713 49.834Q272.713 51.0645 273.548 51.9785Q274.383 52.8926 276.053 52.8926Q277.195 52.8926 278.399 52.3652Q279.604 51.8379 280.869 50.7832Z" />
      </g>
      <path d="M0 0L6 0L6 43L0 43L0 0Z" transform="translate(335.2251 20.345673)" id="Rectangle-12" fill="#564A6F" fill-rule="evenodd" stroke="none" />
    </g>
  </g>
</svg>